<svg xmlns="http://www.w3.org/2000/svg" width="37" height="19" viewBox="0 0 37 19"><g><g><path fill="#00adef" d="M15.467 5.958c3.747 0 6.787 2.92 6.787 6.522 0 3.601-3.04 6.52-6.787 6.52S8.68 16.081 8.68 12.48c0-3.602 3.039-6.522 6.786-6.522zm-1.899 3.74c-2.244 0-4.063 1.747-4.063 3.904 0 2.156 1.819 3.906 4.063 3.906 2.243 0 4.064-1.75 4.064-3.906 0-2.155-1.82-3.904-4.064-3.904zm3.553-9.2C7.814 2.168 2.696 7.774.554 15.018L0 14.959C1.09 6.907 7.523.877 17.164 0zm18.526 8.444C27.774 2.33 17.627.514 7.93 7.847L6.917 6.746C15.475-.621 27.477-.072 37 7.652z"/></g></g></svg>