<svg width="629" height="191" xmlns="http://www.w3.org/2000/svg" data-name="Layer 1">

 <title>logo</title>
 <g>
  <title>Layer 1</title>
  <path id="svg_1" fill="#5c5d60" d="m-0.00016,96.25l0,-85.25l25,0l18,30.32l18.07,-30.32l24.9,0l0,85.24l-24.19,0l0,-47.73l-11.63,20.34l-13.62,0l-12.1,-20.34l0,47.74l-24.43,0z" class="cls-1"/>
  <path id="svg_2" fill="#006fba" d="m104.17984,88.45c-6.46,-6.21 -9.75,-14.13 -9.75,-23.62s3.29,-17.41 9.75,-23.62s14.8,-9.38 24.78,-9.38s18.32,3.17 24.78,9.38s9.87,14.13 9.87,23.62s-3.29,17.41 -9.87,23.62s-14.8,9.38 -24.78,9.38s-18.2,-3.17 -24.78,-9.38zm32.3,-15.45a11.55,11.55 0 0 0 2.94,-8.16a11.05,11.05 0 0 0 -2.94,-8a10.24,10.24 0 0 0 -15,0a11.06,11.06 0 0 0 -2.94,8a11.55,11.55 0 0 0 2.9,8.16a10.44,10.44 0 0 0 15.04,0z" class="cls-2"/>
  <path id="svg_3" fill="#5c5d60" d="m171.58984,96.25l0,-62.84l23.14,0l0,26.67l17.85,-26.67l23.26,0l0,62.84l-23.14,0l0,-26.55l-17.86,26.55l-23.25,0z" class="cls-1"/>
  <path id="svg_4" fill="#5c5d60" d="m95.47984,128.09c7.06,0 12.72,1.85 17,5.65a19.49,19.49 0 0 1 0,29c-4.24,3.8 -9.89,5.65 -17,5.65l-9.45,0l0,21.51l-19,0l0,-61.81l28.43,0l0.02,0zm-2.56,26.49c3.89,0 6.53,-2.3 6.53,-5.56s-2.74,-5.47 -6.53,-5.47l-6.89,0l0,11l6.89,0l0,0.03z" class="cls-1"/>
  <path id="svg_5" fill="#5c5d60" d="m169.28984,175.51l0,12.8c-2.21,1.85 -5.3,2.74 -9.18,2.74c-5.39,0 -10.33,-2.74 -11.83,-6c-2.38,3.44 -7.42,6 -13.51,6q-7.55,0 -11.92,-4.24a14.78,14.78 0 0 1 -4.42,-10.81q0,-7.29 5.3,-10.86a21.71,21.71 0 0 1 12.19,-3.62a20,20 0 0 1 10.24,2.47c0,-4.5 -3,-6.8 -9.1,-6.8a28.48,28.48 0 0 0 -13.07,2.91l0,-13.91a45.72,45.72 0 0 1 17.4,-3c6.89,0 12.45,1.77 16.69,5.21a16.63,16.63 0 0 1 6.36,13.6l0,12.19c0,1.41 0.79,2.12 2.3,2.12a4.4,4.4 0 0 0 2.55,-0.8zm-22.87,-3.51a6.76,6.76 0 0 0 -4.59,-1.59c-3.09,0 -5.47,1.5 -5.47,4.42s2.21,4.5 5,4.5a5.36,5.36 0 0 0 5,-2.56l0,-4.77l0.06,0z" class="cls-1"/>
  <path id="svg_6" fill="#5c5d60" d="m175.99984,189.9l0,-45.56l17.48,0l9.54,14.22l9.54,-14.22l17.57,0l0,45.56l-16.69,0l0,-21.63l-6.71,10l-7.33,0l-6.8,-10.07l0,21.7l-16.6,0z" class="cls-1"/>
  <path id="svg_7" fill="#5c5d60" d="m243.62984,184.69c-4.94,-4.33 -7.42,-10.15 -7.42,-17.57a23.3,23.3 0 0 1 6.71,-17q6.76,-6.89 17.75,-6.89a21.24,21.24 0 0 1 15.81,6.45q6.36,6.32 6.36,17.18l0,4.24l-29,0c1.5,3.62 6.54,5.39 11.92,5.39a31,31 0 0 0 14.7,-3.49l0,13.6c-4.06,2.91 -10.33,4.42 -18.81,4.42a26.74,26.74 0 0 1 -18.02,-6.33zm22,-22.43c-0.09,-4.15 -2.65,-6.62 -5.83,-6.62c-3.44,0 -5.65,2.38 -6.27,6.62l12.1,0z" class="cls-1"/>
  <path id="svg_8" fill="#5c5d60" d="m289.27984,189.9l0,-45.56l18.56,0l0,15l10.07,0l0,-15l18.63,0l0,45.56l-18.65,0l0,-16.07l-10.05,0l0,16.07l-18.56,0z" class="cls-1"/>
  <path id="svg_9" fill="#5c5d60" d="m355.94984,188.58a22.62,22.62 0 0 1 -9.45,-8.21a23.24,23.24 0 0 1 -3.89,-13.37a22.84,22.84 0 0 1 3.89,-13.33c5.21,-7.42 13,-10.51 21.55,-10.51a33.68,33.68 0 0 1 13.42,2.56l0,15.28a30.64,30.64 0 0 0 -10.42,-2c-5.74,0 -10.33,2.91 -10.33,8.12s4.59,8.21 10.68,8.21a25.09,25.09 0 0 0 10.6,-2.3l0,15.1a35.2,35.2 0 0 1 -14.16,2.92a29.14,29.14 0 0 1 -11.89,-2.47z" class="cls-1"/>
  <path id="svg_10" fill="#5c5d60" d="m389.83984,189.9l0,-45.56l18.54,0l0,16.07l11.74,-16.07l21.28,0l-16.42,20.49l19.26,25.07l-22.69,0l-13.16,-18.46l0,18.46l-18.55,0z" class="cls-1"/>
  <path id="svg_11" fill="#00aeef" d="m449.44984,184.25a23.68,23.68 0 0 1 0,-34.26c4.94,-4.5 11.13,-6.8 18.63,-6.8s13.78,2.3 18.63,6.8a23.49,23.49 0 0 1 0,34.26c-4.86,4.5 -11.13,6.8 -18.63,6.8s-13.69,-2.29 -18.63,-6.8zm24.28,-11.25a8.2,8.2 0 0 0 2.21,-5.92a7.87,7.87 0 1 0 -15.72,0a8.2,8.2 0 0 0 2.21,5.92a8,8 0 0 0 11.3,0z" class="cls-3"/>
  <path id="svg_12" fill="#5c5d60" d="m504.83984,184.69c-4.94,-4.33 -7.42,-10.15 -7.42,-17.57a23.3,23.3 0 0 1 6.71,-17q6.76,-6.89 17.75,-6.89a21.24,21.24 0 0 1 15.81,6.45q6.36,6.36 6.36,17.22l0,4.24l-29,0c1.5,3.62 6.54,5.39 11.92,5.39a31,31 0 0 0 14.67,-3.53l0,13.6c-4.06,2.91 -10.33,4.42 -18.81,4.42a26.74,26.74 0 0 1 -17.99,-6.33zm22,-22.43c-0.09,-4.15 -2.65,-6.62 -5.83,-6.62c-3.44,0 -5.65,2.38 -6.27,6.62l12.1,0z" class="cls-1"/>
  <path id="svg_13" fill="#00652e" d="m284.74984,88.06c-6.46,-6.21 -9.75,-14.13 -9.75,-23.62s3.29,-17.41 9.75,-23.62s14.8,-9.38 24.78,-9.38s18.32,3.17 24.78,9.38s9.87,14.13 9.87,23.62s-3.29,17.41 -9.87,23.62s-14.8,9.38 -24.78,9.38s-18.21,-3.17 -24.78,-9.38zm32.3,-15.47a11.55,11.55 0 0 0 2.94,-8.16a11.05,11.05 0 0 0 -2.94,-8a10.24,10.24 0 0 0 -15,0a11.06,11.06 0 0 0 -2.94,8a11.55,11.55 0 0 0 2.94,8.16a10.44,10.44 0 0 0 14.99,0l0.01,0z" class="cls-5"/>
  <path id="svg_14" fill="#5c5d60" d="m352.15984,95.85l0,-62.85l24.68,0l0,22.16l15.61,-22.16l28.3,0l-21.84,28.25l25.6,34.58l-30.18,0l-17.49,-25.43l0,25.45l-24.68,0z" class="cls-1"/>
  <path id="svg_15" fill="#5c5d60" d="m505.54984,118l0,-22a16.62,16.62 0 0 0 10.22,3.29c5.05,0 7.63,-1.22 9.16,-5.48l-24.78,-60.81l26,0l10.69,35.57l9.59,-35.57l25.49,0l-25.6,68.93c-4.7,12.66 -13.39,19 -26.19,19c-6.35,0.01 -11.17,-0.93 -14.58,-2.93z" class="cls-1"/>
  <path id="svg_16" fill="#5c5d60" d="m577.78984,95.85l0,-62.85l50.74,0l0,20l-26.08,0l0,42.87l-24.66,0l0,-0.02z" class="cls-1"/>
  <path id="svg_17" fill="#5c5d60" d="m205.13984,0a14.7,14.7 0 1 0 14.7,14.7a14.7,14.7 0 0 0 -14.7,-14.7zm0,19.69a5,5 0 1 1 5,-5a5,5 0 0 1 -5,5.04l0,-0.04z" class="cls-1"/>
  <path id="svg_18" fill="#5c5d60" d="m456.83984,120.21l-24.81,0l0,-87.21l24.81,0l0,7.06c3.64,-5.72 9.16,-8.65 16.56,-8.65c7.63,0 14.09,3.17 19.14,9.38s7.63,14.13 7.63,23.62s-2.58,17.41 -7.63,23.62s-11.51,9.38 -19.14,9.38c-7.4,0 -12.92,-2.92 -16.56,-8.65l0,31.42l0,0.03zm-0.35,-48.71c1.76,3 4.82,4.63 9.28,4.63c6,0 10,-5.24 10,-11.69s-4,-11.69 -10,-11.69c-4.35,0 -7.52,1.46 -9.28,4.51l0,14.24z" class="cls-1"/>
 </g>
</svg>