<svg id="Layer_1" data-name="Layer 1" xmlns="http://www.w3.org/2000/svg" viewBox="0 0 628.52 490.46"><defs><style>.cls-1{fill:#5c5d60;}.cls-2{fill:#006fba;}.cls-3{fill:#00aeef;}.cls-4{fill:#f79420;}.cls-5{fill:#00652e;}</style></defs><title>logo</title><path class="cls-1" d="M108.16,747.25V662h25l18,30.32L169.23,662h24.9v85.24H169.94V699.51l-11.63,20.34H144.69l-12.1-20.34v47.74H108.16Z" transform="translate(-108.16 -351.59)"/><path class="cls-2" d="M212.34,739.45c-6.46-6.21-9.75-14.13-9.75-23.62s3.29-17.41,9.75-23.62,14.8-9.38,24.78-9.38,18.32,3.17,24.78,9.38,9.87,14.13,9.87,23.62-3.29,17.41-9.87,23.62-14.8,9.38-24.78,9.38S218.92,745.66,212.34,739.45ZM244.64,724a11.55,11.55,0,0,0,2.94-8.16,11.05,11.05,0,0,0-2.94-8,10.24,10.24,0,0,0-15,0,11.06,11.06,0,0,0-2.94,8A11.55,11.55,0,0,0,229.6,724,10.44,10.44,0,0,0,244.64,724Z" transform="translate(-108.16 -351.59)"/><path class="cls-1" d="M279.75,747.25V684.41h23.14v26.67l17.85-26.67H344v62.84H320.86V720.7L303,747.25H279.75Z" transform="translate(-108.16 -351.59)"/><path class="cls-1" d="M203.64,779.09c7.06,0,12.72,1.85,17,5.65a19.49,19.49,0,0,1,0,29c-4.24,3.8-9.89,5.65-17,5.65h-9.45V840.9h-19V779.09h28.43Zm-2.56,26.49c3.89,0,6.53-2.3,6.53-5.56s-2.74-5.47-6.53-5.47h-6.89v11h6.89Z" transform="translate(-108.16 -351.59)"/><path class="cls-1" d="M277.45,826.51v12.8c-2.21,1.85-5.3,2.74-9.18,2.74-5.39,0-10.33-2.74-11.83-6-2.38,3.44-7.42,6-13.51,6q-7.55,0-11.92-4.24A14.78,14.78,0,0,1,226.59,827q0-7.29,5.3-10.86a21.71,21.71,0,0,1,12.19-3.62,20,20,0,0,1,10.24,2.47c0-4.5-3-6.8-9.1-6.8a28.48,28.48,0,0,0-13.07,2.91V797.19a45.72,45.72,0,0,1,17.4-3c6.89,0,12.45,1.77,16.69,5.21A16.63,16.63,0,0,1,272.6,813v12.19c0,1.41.79,2.12,2.3,2.12A4.4,4.4,0,0,0,277.45,826.51ZM254.58,823a6.76,6.76,0,0,0-4.59-1.59c-3.09,0-5.47,1.5-5.47,4.42s2.21,4.5,5,4.5a5.36,5.36,0,0,0,5-2.56V823Z" transform="translate(-108.16 -351.59)"/><path class="cls-1" d="M284.16,840.9V795.34h17.48l9.54,14.22,9.54-14.22h17.57V840.9H321.6V819.27l-6.71,10h-7.33l-6.8-10.07V840.9h-16.6Z" transform="translate(-108.16 -351.59)"/><path class="cls-1" d="M351.79,835.69c-4.94-4.33-7.42-10.15-7.42-17.57a23.3,23.3,0,0,1,6.71-17q6.76-6.89,17.75-6.89a21.24,21.24,0,0,1,15.81,6.45Q391,807,391,817.86v4.24H362c1.5,3.62,6.54,5.39,11.92,5.39A31,31,0,0,0,388.62,824v13.6c-4.06,2.91-10.33,4.42-18.81,4.42A26.74,26.74,0,0,1,351.79,835.69Zm22-22.43c-0.09-4.15-2.65-6.62-5.83-6.62-3.44,0-5.65,2.38-6.27,6.62h12.1Z" transform="translate(-108.16 -351.59)"/><path class="cls-1" d="M397.44,840.9V795.34H416v15h10.07v-15h18.63V840.9H426.05V824.83H416V840.9H397.44Z" transform="translate(-108.16 -351.59)"/><path class="cls-1" d="M464.11,839.58a22.62,22.62,0,0,1-9.45-8.21A23.24,23.24,0,0,1,450.77,818a22.84,22.84,0,0,1,3.89-13.33c5.21-7.42,13-10.51,21.55-10.51a33.68,33.68,0,0,1,13.42,2.56V812a30.64,30.64,0,0,0-10.42-2c-5.74,0-10.33,2.91-10.33,8.12s4.59,8.21,10.68,8.21a25.09,25.09,0,0,0,10.6-2.3v15.1A35.2,35.2,0,0,1,476,842.05,29.14,29.14,0,0,1,464.11,839.58Z" transform="translate(-108.16 -351.59)"/><path class="cls-1" d="M498,840.9V795.34h18.54v16.07l11.74-16.07h21.28l-16.42,20.49L552.4,840.9H529.71l-13.16-18.46V840.9H498Z" transform="translate(-108.16 -351.59)"/><path class="cls-3" d="M557.61,835.25a23.68,23.68,0,0,1,0-34.26c4.94-4.5,11.13-6.8,18.63-6.8s13.78,2.3,18.63,6.8a23.49,23.49,0,0,1,0,34.26c-4.86,4.5-11.13,6.8-18.63,6.8S562.55,839.76,557.61,835.25ZM581.89,824a8.2,8.2,0,0,0,2.21-5.92,7.87,7.87,0,1,0-15.72,0,8.2,8.2,0,0,0,2.21,5.92A8,8,0,0,0,581.89,824Z" transform="translate(-108.16 -351.59)"/><path class="cls-1" d="M613,835.69c-4.94-4.33-7.42-10.15-7.42-17.57a23.3,23.3,0,0,1,6.71-17q6.76-6.89,17.75-6.89a21.24,21.24,0,0,1,15.81,6.45q6.36,6.36,6.36,17.22v4.24h-29c1.5,3.62,6.54,5.39,11.92,5.39A31,31,0,0,0,649.8,824v13.6c-4.06,2.91-10.33,4.42-18.81,4.42A26.74,26.74,0,0,1,613,835.69Zm22-22.43c-0.09-4.15-2.65-6.62-5.83-6.62-3.44,0-5.65,2.38-6.27,6.62H635Z" transform="translate(-108.16 -351.59)"/><path class="cls-4" d="M401.51,668.25a74.89,74.89,0,1,0-71.89-77.78A74.89,74.89,0,0,0,401.51,668.25ZM405.65,563a30.4,30.4,0,1,1-31.57,29.18A30.4,30.4,0,0,1,405.65,563Z" transform="translate(-108.16 -351.59)"/><path class="cls-5" d="M392.91,739.06c-6.46-6.21-9.75-14.13-9.75-23.62s3.29-17.41,9.75-23.62,14.8-9.38,24.78-9.38,18.32,3.17,24.78,9.38,9.87,14.13,9.87,23.62-3.29,17.41-9.87,23.62-14.8,9.38-24.78,9.38S399.48,745.27,392.91,739.06Zm32.3-15.47a11.55,11.55,0,0,0,2.94-8.16,11.05,11.05,0,0,0-2.94-8,10.24,10.24,0,0,0-15,0,11.06,11.06,0,0,0-2.94,8,11.55,11.55,0,0,0,2.94,8.16A10.44,10.44,0,0,0,425.2,723.59Z" transform="translate(-108.16 -351.59)"/><path class="cls-1" d="M460.32,746.85V684H485v22.16L500.61,684h28.3l-21.84,28.25,25.6,34.58H502.49L485,721.4v25.45H460.32Z" transform="translate(-108.16 -351.59)"/><path class="cls-1" d="M613.71,769V747a16.62,16.62,0,0,0,10.22,3.29c5.05,0,7.63-1.22,9.16-5.48L608.31,684h26L645,719.57,654.59,684h25.49l-25.6,68.93c-4.7,12.66-13.39,19-26.19,19C621.94,771.94,617.12,771,613.71,769Z" transform="translate(-108.16 -351.59)"/><path class="cls-1" d="M685.95,746.85V684h50.74v20H710.61v42.87H685.95Z" transform="translate(-108.16 -351.59)"/><path class="cls-1" d="M313.3,651a14.7,14.7,0,1,0,14.7,14.7A14.7,14.7,0,0,0,313.3,651Zm0,19.69a5,5,0,1,1,5-5A5,5,0,0,1,313.3,670.73Z" transform="translate(-108.16 -351.59)"/><path class="cls-3" d="M574.48,600.59A124.55,124.55,0,1,0,454.93,471.24,124.54,124.54,0,0,0,574.48,600.59ZM581,433.89a42.29,42.29,0,1,1-43.92,40.59A42.29,42.29,0,0,1,581,433.89Z" transform="translate(-108.16 -351.59)"/><path class="cls-1" d="M565,771.21H540.19V684H565v7.06c3.64-5.72,9.16-8.65,16.56-8.65,7.63,0,14.09,3.17,19.14,9.38s7.63,14.13,7.63,23.62-2.58,17.41-7.63,23.62-11.51,9.38-19.14,9.38c-7.4,0-12.92-2.92-16.56-8.65v31.42Zm-0.35-48.71c1.76,3,4.82,4.63,9.28,4.63,6,0,10-5.24,10-11.69s-4-11.69-10-11.69c-4.35,0-7.52,1.46-9.28,4.51V722.5Z" transform="translate(-108.16 -351.59)"/></svg>