<svg width="377" height="319" xmlns="http://www.w3.org/2000/svg" data-name="Layer 1">

 <title>logo</title>
 <g>
  <title>Layer 1</title>
  <path id="svg_1" fill="#f79420" d="m72.91522,317.79045a74.89,74.89 0 1 0 -71.89,-77.78a74.89,74.89 0 0 0 71.89,77.78zm4.14,-105.25a30.4,30.4 0 1 1 -31.57,29.18a30.4,30.4 0 0 1 31.57,-29.18z" class="cls-4"/>
  <path id="svg_2" fill="#00aeef" d="m245.88522,250.13045a124.55,124.55 0 1 0 -119.55,-129.35a124.54,124.54 0 0 0 119.55,129.35zm6.52,-166.7a42.29,42.29 0 1 1 -43.92,40.59a42.29,42.29 0 0 1 43.92,-40.59z" class="cls-3"/>
 </g>
</svg>